<svg xmlns="http://www.w3.org/2000/svg" xmlns:xlink="http://www.w3.org/1999/xlink" width="500" zoomAndPan="magnify" viewBox="0 0 375 374.999991" height="500" preserveAspectRatio="xMidYMid meet" version="1.0"><defs><clipPath id="1a8cafe2dd"><path d="M 74.261719 117.464844 L 133.511719 117.464844 L 133.511719 187.214844 L 74.261719 187.214844 Z M 74.261719 117.464844 " clip-rule="nonzero"/></clipPath></defs><path fill="#ed1c24" d="M 226.832031 158.007812 L 319.800781 30.914062 L 149.847656 166.183594 L 149.730469 166.375 L 192.820312 162.539062 L 110.960938 241.632812 L 151.714844 228.195312 L 62.070312 351.746094 L 232.007812 205.410156 L 198.582031 214.234375 L 280.335938 144.941406 L 226.832031 158.007812 " fill-opacity="1" fill-rule="nonzero"/><path fill="#ed1c24" d="M 34.84375 187.523438 C 34.84375 103.199219 103.207031 34.84375 187.53125 34.84375 C 215.710938 34.84375 242.09375 42.5 264.75 55.820312 L 293.339844 32.683594 C 263.222656 12.066406 226.789062 -0.0078125 187.53125 -0.0078125 C 83.960938 -0.0078125 0 83.953125 0 187.523438 C 0 248.109375 28.734375 301.96875 73.308594 336.257812 L 93.785156 308.039062 C 57.917969 280.105469 34.84375 236.511719 34.84375 187.523438 " fill-opacity="1" fill-rule="nonzero"/><path fill="#ed1c24" d="M 309.460938 45.046875 L 288.8125 73.277344 C 320.339844 101.25 340.21875 142.066406 340.21875 187.523438 C 340.21875 271.855469 271.859375 340.210938 187.53125 340.210938 C 163.320312 340.210938 140.4375 334.550781 120.097656 324.519531 L 91.238281 348.460938 C 119.386719 365.347656 152.324219 375.0625 187.53125 375.0625 C 291.101562 375.0625 375.066406 291.101562 375.066406 187.523438 C 375.066406 130.511719 349.617188 79.445312 309.460938 45.046875 " fill-opacity="1" fill-rule="nonzero"/><g clip-path="url(#1a8cafe2dd)"><path fill="#ffbd59" d="M 74.265625 187.449219 L 74.265625 143.492188 L 104.058594 143.492188 L 116.019531 161.433594 L 92.207031 161.433594 L 92.207031 187.449219 Z M 92.757812 135.4375 L 80.820312 117.5 L 121.40625 117.5 L 133.347656 135.4375 Z M 92.757812 135.4375 " fill-opacity="1" fill-rule="nonzero"/></g></svg>